# xmcd CD database file
#
# Track frame offsets:
#	150
#	25362
#	43145
#	60357
#	82632
#	108507
#	146402
#	164802
#	178842
#	202306
#	229017
#	247433
#	269835
#	289248
#	306543
#	328239
#
# Disc length: 4733 seconds
#
# Revision: 0
# Processed by: cddbd v1.5.2PL0 Copyright (c) Steve Scherf et al.
# Submitted via: CDex 1.83
#
DISCID=04127b10
DTITLE=Duke Ellington - First Time! Meets Coleman Hawkins
DYEAR=1961
DGENRE=Jazz
TTITLE0=Battle Royal
TTITLE1=To You
TTITLE2=Take The "A" Train
TTITLE3=Until I MEt You
TTITLE4=Wild Man
TTITLE5=Segue In C
TTITLE6=B D B
TTITLE7=Jumpin' At The Woodside
TTITLE8=Limbo Jazz
TTITLE9=Mood Indigo
TTITLE10=Ray Charles' Place
TTITLE11=Wanderlust
TTITLE12=You Dirty Dog
TTITLE13=Self Portrait (Of The Bean)
TTITLE14=The Jeep Is Jumpin'
TTITLE15=The Ricitic
EXTD=YEAR: 1961
EXTT0=
EXTT1=
EXTT2=
EXTT3=
EXTT4=
EXTT5=
EXTT6=
EXTT7=
EXTT8=
EXTT9=
EXTT10=
EXTT11=
EXTT12=
EXTT13=
EXTT14=
EXTT15=
PLAYORDER=
